{"glyphs":{"0":{"ha":772,"x_min":0,"x_max":0,"o":"m 58 483 b 386 985 58 701 78 985 b 714 483 694 985 714 701 b 386 -17 714 267 694 -17 b 58 483 78 -17 58 267 m 183 485 b 386 88 183 338 185 88 b 589 485 588 88 589 338 b 386 881 589 631 588 881 b 183 485 185 881 183 631 "},"1":{"ha":772,"x_min":0,"x_max":0,"o":"m 494 0 l 376 0 l 376 706 l 121 706 l 121 800 b 404 985 256 800 378 836 l 494 985 "},"2":{"ha":772,"x_min":0,"x_max":0,"o":"m 61 636 b 378 985 51 836 169 985 b 686 701 550 985 686 885 b 447 364 686 528 569 440 b 171 104 324 289 194 226 l 676 104 l 676 0 l 33 0 b 310 403 53 233 171 317 b 561 703 476 506 561 567 b 371 881 561 810 475 881 b 179 636 233 881 175 754 "},"3":{"ha":772,"x_min":0,"x_max":0,"o":"m 303 563 b 354 561 321 561 338 561 b 542 722 454 561 542 615 b 367 881 542 825 467 881 b 181 667 238 881 182 782 l 63 667 b 367 985 69 854 169 985 b 667 721 538 985 667 903 b 531 525 667 635 606 560 l 531 522 b 708 283 650 496 708 401 b 369 -17 708 86 554 -17 b 42 304 169 -17 38 101 l 160 304 b 369 88 164 176 235 88 b 583 278 485 88 583 158 b 374 467 583 401 490 467 b 303 463 350 467 325 465 "},"4":{"ha":772,"x_min":0,"x_max":0,"o":"m 582 335 l 715 335 l 715 231 l 582 231 l 582 0 l 471 0 l 471 231 l 39 231 l 39 344 l 488 985 l 582 985 m 471 335 l 471 817 l 468 817 l 140 335 "},"5":{"ha":772,"x_min":0,"x_max":0,"o":"m 653 864 l 256 864 l 203 581 l 206 578 b 389 649 249 626 322 649 b 707 311 564 649 707 536 b 363 -17 707 144 592 -17 b 49 265 192 -17 53 88 l 167 265 b 374 88 174 164 256 88 b 582 321 486 88 582 164 b 360 544 582 451 492 544 b 176 451 285 544 222 507 l 75 457 l 167 968 l 653 968 "},"6":{"ha":772,"x_min":0,"x_max":0,"o":"m 397 529 b 193 307 265 529 193 431 b 397 88 193 185 268 88 b 596 306 525 88 596 189 b 397 529 596 428 532 529 m 575 733 b 410 881 564 822 503 881 b 171 507 208 881 176 658 l 174 504 b 419 633 229 594 313 633 b 721 314 608 633 721 496 b 392 -17 721 171 640 -17 b 53 457 100 -17 53 250 b 415 985 53 728 135 985 b 693 733 578 985 679 893 "},"7":{"ha":772,"x_min":0,"x_max":0,"o":"m 707 867 b 329 0 508 669 347 308 l 197 0 b 586 857 219 333 379 638 l 69 857 l 69 968 l 707 968 "},"8":{"ha":772,"x_min":0,"x_max":0,"o":"m 181 278 b 390 88 181 160 268 88 b 592 279 508 88 592 169 b 389 467 592 386 500 467 b 181 278 272 467 181 392 m 90 733 b 379 985 90 896 228 985 b 678 733 594 985 678 858 b 542 529 678 646 622 565 b 717 283 660 492 717 406 b 390 -17 717 93 572 -17 b 56 283 201 -17 56 82 b 228 529 56 400 118 490 b 90 733 146 563 90 644 m 215 729 b 390 571 215 621 293 571 b 553 729 483 571 553 629 b 388 881 553 828 483 881 b 215 729 293 881 215 828 "},"9":{"ha":772,"x_min":0,"x_max":0,"o":"m 568 656 b 365 881 568 776 497 881 b 172 647 225 881 172 768 b 367 439 172 539 253 439 b 568 656 490 439 568 539 m 186 238 b 367 88 194 142 272 88 b 589 468 511 88 582 214 l 586 471 b 358 335 542 388 454 335 b 47 664 158 335 47 469 b 371 985 47 854 181 985 b 708 514 554 985 708 886 b 367 -17 708 174 606 -17 b 68 238 201 -17 83 68 "}," ":{"ha":386,"x_min":0,"x_max":0,"o":""},"!":{"ha":360,"x_min":0,"x_max":0,"o":"m 246 686 l 211 254 l 149 254 l 114 686 l 114 992 l 246 992 m 103 154 l 257 154 l 257 0 l 103 0 "},"\"":{"ha":592,"x_min":0,"x_max":0,"o":"m 151 992 l 246 992 l 246 633 l 151 633 m 346 992 l 440 992 l 440 633 l 346 633 "},"#":{"ha":772,"x_min":0,"x_max":0,"o":"m 182 286 l 47 286 l 47 381 l 196 381 l 225 589 l 83 589 l 83 683 l 238 683 l 278 968 l 374 968 l 333 683 l 506 683 l 546 968 l 642 968 l 601 683 l 725 683 l 725 589 l 589 589 l 560 381 l 686 381 l 686 286 l 546 286 l 506 0 l 410 0 l 450 286 l 278 286 l 238 0 l 142 0 m 321 589 l 292 381 l 464 381 l 493 589 "},"$":{"ha":772,"x_min":0,"x_max":0,"o":"m 349 904 b 189 736 260 894 189 842 b 349 579 189 638 256 607 m 425 88 b 604 265 529 96 604 146 b 425 436 604 371 526 407 m 153 303 b 349 88 157 179 238 106 l 349 456 b 64 724 153 503 64 561 b 349 1015 64 892 189 1006 l 349 1107 l 425 1107 l 425 1014 b 699 739 575 996 663 899 l 581 739 b 425 900 563 829 508 885 l 425 558 l 508 536 b 729 278 579 518 729 449 b 425 -24 729 99 601 -10 l 425 -137 l 349 -137 l 349 -24 b 35 303 167 -6 50 111 "},"%":{"ha":1389,"x_min":0,"x_max":0,"o":"m 1008 1003 l 1126 1003 l 381 -31 l 261 -31 m 814 258 b 1039 540 814 407 868 540 b 1261 263 1211 540 1261 414 b 1039 -17 1261 118 1200 -17 b 814 258 871 -17 814 108 m 918 261 b 1035 60 918 181 931 60 b 1157 263 1140 60 1157 176 b 1039 464 1157 344 1143 464 b 918 261 936 464 918 344 m 128 703 b 353 985 128 851 182 985 b 575 707 525 985 575 858 b 353 428 575 563 514 428 b 128 703 185 428 128 553 m 232 706 b 349 504 232 625 244 504 b 471 707 454 504 471 621 b 353 908 471 789 457 908 b 232 706 250 908 232 789 "},"&":{"ha":875,"x_min":0,"x_max":0,"o":"m 343 479 b 171 256 250 426 171 374 b 360 88 171 156 264 88 b 571 206 450 88 522 133 m 636 124 b 356 -17 576 31 464 -17 b 46 254 88 -17 46 174 b 278 554 46 410 151 488 b 168 788 222 633 168 686 b 392 992 168 896 249 992 b 632 789 515 992 632 924 b 446 532 632 671 542 586 l 625 314 b 657 468 643 363 654 415 l 769 468 b 703 224 760 351 744 311 l 896 0 l 742 0 m 382 610 b 514 782 439 646 514 699 b 400 888 514 839 471 888 b 286 782 344 888 286 854 b 382 610 286 722 339 664 "},"’":{"ha":386,"x_min":0,"x_max":0,"o":"m 115 992 l 269 992 l 269 838 b 117 633 269 728 224 633 l 117 703 b 197 838 179 703 197 774 l 115 838 "},"(":{"ha":360,"x_min":0,"x_max":0,"o":"m 283 -275 b 65 375 150 -67 65 132 b 283 1015 65 592 142 826 l 374 1015 b 190 375 242 807 190 600 b 374 -275 190 142 242 -62 "},")":{"ha":360,"x_min":0,"x_max":0,"o":"m -14 -275 b 169 365 118 -67 169 140 b -14 1015 169 599 118 803 l 76 1015 b 294 365 210 807 294 608 b 76 -275 294 149 218 -86 "},"*":{"ha":489,"x_min":0,"x_max":0,"o":"m 279 835 l 428 890 l 456 824 l 304 771 l 396 644 l 339 601 l 243 735 l 153 601 l 90 644 l 181 771 l 33 824 l 58 890 l 206 835 l 206 992 l 279 992 "},"+":{"ha":833,"x_min":0,"x_max":0,"o":"m 464 399 l 767 399 l 767 304 l 464 304 l 464 0 l 369 0 l 369 304 l 67 304 l 67 399 l 369 399 l 369 703 l 464 703 "},",":{"ha":386,"x_min":0,"x_max":0,"o":"m 115 154 l 269 154 l 269 14 b 117 -204 269 -90 224 -174 l 117 -135 b 197 0 179 -114 200 -44 l 115 0 "},"-":{"ha":540,"x_min":0,"x_max":0,"o":"m 69 442 l 471 442 l 471 331 l 69 331 "},".":{"ha":386,"x_min":0,"x_max":0,"o":"m 115 154 l 269 154 l 269 0 l 115 0 "},"/":{"ha":463,"x_min":0,"x_max":0,"o":"m 386 1015 l 488 1015 l 76 -24 l -25 -24 "},":":{"ha":386,"x_min":0,"x_max":0,"o":"m 115 154 l 269 154 l 269 0 l 115 0 m 269 564 l 115 564 l 115 718 l 269 718 "},";":{"ha":386,"x_min":0,"x_max":0,"o":"m 115 154 l 269 154 l 269 14 b 117 -204 271 -90 224 -174 l 117 -135 b 197 0 179 -114 200 -44 l 115 0 m 269 564 l 115 564 l 115 718 l 269 718 "},"<":{"ha":833,"x_min":0,"x_max":0,"o":"m 769 619 l 179 351 l 769 83 l 769 -11 l 64 308 l 64 394 l 769 714 "},"=":{"ha":833,"x_min":0,"x_max":0,"o":"m 767 444 l 67 444 l 67 539 l 767 539 m 67 258 l 767 258 l 767 164 l 67 164 "},">":{"ha":833,"x_min":0,"x_max":0,"o":"m 64 83 l 654 351 l 64 619 l 64 714 l 769 394 l 769 308 l 64 -11 "},"?":{"ha":772,"x_min":0,"x_max":0,"o":"m 76 682 b 388 1015 74 872 193 1015 b 681 738 558 1015 681 914 b 561 501 681 624 622 560 b 440 296 501 444 440 390 l 440 242 l 322 242 l 322 307 b 447 539 322 421 392 483 b 556 749 501 593 563 646 b 388 911 549 850 486 911 b 194 682 256 911 193 810 m 303 154 l 457 154 l 457 0 l 303 0 "},"@":{"ha":1111,"x_min":0,"x_max":0,"o":"m 583 701 b 361 411 453 701 361 532 b 481 276 361 333 411 276 b 696 572 601 276 696 458 b 583 701 696 639 642 701 m 742 375 b 726 304 735 351 726 325 b 760 261 726 279 736 261 b 951 581 844 261 951 432 b 575 939 951 800 769 939 b 153 493 338 939 153 736 b 582 53 153 246 349 53 b 926 221 714 53 849 119 l 1014 221 b 579 -24 925 68 757 -24 b 58 500 286 -24 58 207 b 574 1015 58 786 292 1015 b 1046 588 831 1015 1046 838 b 721 185 1046 346 851 185 b 632 275 674 185 635 214 l 628 275 b 456 182 586 226 524 182 b 257 401 338 182 257 279 b 583 796 257 594 388 796 b 739 682 647 796 707 765 l 771 769 l 858 769 "},"A":{"ha":900,"x_min":0,"x_max":0,"o":"m 378 992 l 524 992 l 911 0 l 765 0 l 657 299 l 238 299 l 126 0 l -10 0 m 279 410 l 615 410 l 450 872 l 447 872 "},"B":{"ha":951,"x_min":0,"x_max":0,"o":"m 240 111 l 571 111 b 757 289 685 111 757 181 b 542 454 757 418 653 454 l 240 454 m 108 992 l 468 992 b 731 956 556 992 671 992 b 847 749 796 917 847 846 b 700 526 847 643 792 564 l 700 524 b 889 285 822 499 889 407 b 588 0 889 139 785 0 l 108 0 m 240 565 l 504 565 b 715 724 654 565 715 619 b 504 881 715 861 618 881 l 240 881 "},"C":{"ha":1003,"x_min":0,"x_max":0,"o":"m 806 693 b 528 904 778 833 665 904 b 192 503 292 904 192 710 b 529 88 192 276 292 88 b 815 374 703 88 803 210 l 947 374 b 518 -24 922 126 768 -24 b 60 493 210 -24 60 204 b 529 1015 60 781 224 1015 b 938 693 736 1015 907 904 "},"D":{"ha":978,"x_min":0,"x_max":0,"o":"m 108 992 l 449 992 b 925 519 754 992 925 839 b 449 0 925 188 779 0 l 108 0 m 240 111 l 460 111 b 793 501 550 111 793 136 b 463 881 793 738 706 881 l 240 881 "},"E":{"ha":849,"x_min":0,"x_max":0,"o":"m 108 992 l 793 992 l 793 881 l 240 881 l 240 565 l 756 565 l 756 454 l 240 454 l 240 111 l 797 111 l 797 0 l 108 0 "},"F":{"ha":797,"x_min":0,"x_max":0,"o":"m 108 992 l 760 992 l 760 881 l 240 881 l 240 565 l 696 565 l 696 454 l 240 454 l 240 0 l 108 0 "},"G":{"ha":1054,"x_min":0,"x_max":0,"o":"m 850 124 b 532 -24 774 19 649 -24 b 60 476 236 -24 60 218 b 532 1015 60 765 218 1015 b 958 686 749 1015 921 918 l 826 686 b 532 904 800 836 679 904 b 192 483 292 904 192 696 b 532 88 192 276 311 88 b 850 411 736 88 858 231 l 533 411 l 533 522 l 968 522 l 968 0 l 885 0 "},"H":{"ha":1003,"x_min":0,"x_max":0,"o":"m 108 992 l 240 992 l 240 565 l 763 565 l 763 992 l 894 992 l 894 0 l 763 0 l 763 454 l 240 454 l 240 0 l 108 0 "},"I":{"ha":360,"x_min":0,"x_max":0,"o":"m 114 992 l 246 992 l 246 0 l 114 0 "},"J":{"ha":721,"x_min":0,"x_max":0,"o":"m 613 247 b 319 -24 613 113 542 -24 b 31 265 135 -24 31 79 l 31 326 l 163 326 l 163 285 b 322 88 163 169 193 88 b 481 267 443 88 481 157 l 481 992 l 613 992 "},"K":{"ha":926,"x_min":0,"x_max":0,"o":"m 108 992 l 240 992 l 240 497 l 743 992 l 914 992 l 496 592 l 931 0 l 764 0 l 406 501 l 240 347 l 240 0 l 108 0 "},"L":{"ha":772,"x_min":0,"x_max":0,"o":"m 108 992 l 240 992 l 240 111 l 765 111 l 765 0 l 108 0 "},"M":{"ha":1210,"x_min":0,"x_max":0,"o":"m 111 992 l 292 992 l 604 158 l 918 992 l 1099 992 l 1099 0 l 974 0 l 974 825 l 971 825 l 661 0 l 549 0 l 239 825 l 236 825 l 236 0 l 111 0 "},"N":{"ha":1003,"x_min":0,"x_max":0,"o":"m 107 992 l 247 992 l 769 188 l 772 188 l 772 992 l 897 992 l 897 0 l 753 0 l 235 796 l 232 796 l 232 0 l 107 0 "},"O":{"ha":1056,"x_min":0,"x_max":0,"o":"m 53 496 b 528 1015 53 765 213 1015 b 1003 496 843 1015 1003 765 b 528 -24 1003 226 843 -24 b 53 496 213 -24 53 226 m 185 496 b 528 88 185 296 286 88 b 871 496 769 88 871 296 b 528 904 871 696 769 904 b 185 496 286 904 185 696 "},"P":{"ha":900,"x_min":0,"x_max":0,"o":"m 108 992 l 543 992 b 847 699 740 992 847 882 b 543 406 847 515 740 404 l 240 406 l 240 0 l 108 0 m 240 517 l 499 517 b 715 699 647 515 715 581 b 499 881 715 817 647 881 l 240 881 "},"Q":{"ha":1056,"x_min":0,"x_max":0,"o":"m 917 -86 l 765 36 b 528 -24 700 -3 621 -24 b 53 496 213 -24 53 226 b 528 1015 53 765 213 1015 b 1003 496 843 1015 1003 765 b 853 101 1003 344 953 199 l 983 -3 m 625 283 l 757 178 b 871 496 835 254 871 376 b 528 904 871 696 769 904 b 185 496 286 904 185 696 b 528 88 185 296 286 88 b 665 115 579 88 624 97 l 556 203 "},"R":{"ha":951,"x_min":0,"x_max":0,"o":"m 515 535 b 744 711 639 535 744 567 b 568 881 744 808 692 881 l 240 881 l 240 535 m 108 992 l 575 992 b 876 732 761 992 876 890 b 704 481 876 613 824 514 l 704 478 b 853 274 819 456 843 371 b 911 0 861 176 856 68 l 764 0 b 728 244 726 40 747 147 b 563 424 714 342 690 424 l 240 424 l 240 0 l 108 0 "},"S":{"ha":900,"x_min":0,"x_max":0,"o":"m 682 701 b 436 904 667 843 572 904 b 214 735 325 904 214 864 b 532 558 214 613 372 594 b 849 272 690 522 849 467 b 461 -24 849 61 642 -24 b 51 326 239 -24 51 85 l 176 326 b 465 88 176 160 315 88 b 717 268 585 88 717 125 b 400 463 717 404 558 428 b 82 725 242 497 82 543 b 442 1015 82 926 261 1015 b 807 701 644 1015 799 919 "},"T":{"ha":797,"x_min":0,"x_max":0,"o":"m 333 881 l 3 881 l 3 992 l 796 992 l 796 881 l 465 881 l 465 0 l 333 0 "},"U":{"ha":1003,"x_min":0,"x_max":0,"o":"m 900 358 b 510 -24 900 108 757 -24 b 103 358 254 -24 103 94 l 103 992 l 235 992 l 235 358 b 510 88 235 183 335 88 b 768 358 676 88 768 183 l 768 992 l 900 992 "},"V":{"ha":849,"x_min":0,"x_max":0,"o":"m 499 0 l 349 0 l -1 992 l 142 992 l 425 132 l 428 132 l 714 992 l 851 992 "},"W":{"ha":1286,"x_min":0,"x_max":0,"o":"m 1004 0 l 867 0 l 640 833 l 638 833 l 408 0 l 271 0 l 17 992 l 151 992 l 346 167 l 349 167 l 571 992 l 714 992 l 933 167 l 936 167 l 1138 992 l 1269 992 "},"X":{"ha":849,"x_min":0,"x_max":0,"o":"m 344 510 l 18 992 l 176 992 l 424 604 l 682 992 l 829 992 l 501 510 l 850 0 l 689 0 l 422 410 l 147 0 l -1 0 "},"Y":{"ha":900,"x_min":0,"x_max":0,"o":"m 518 406 l 518 0 l 386 0 l 386 406 l 3 992 l 160 992 l 457 519 l 747 992 l 897 992 "},"Z":{"ha":849,"x_min":0,"x_max":0,"o":"m 31 111 l 647 881 l 78 881 l 78 992 l 803 992 l 803 881 l 188 111 l 819 111 l 819 0 l 31 0 "},"[":{"ha":360,"x_min":0,"x_max":0,"o":"m 360 921 l 211 921 l 211 -181 l 360 -181 l 360 -275 l 100 -275 l 100 1015 l 360 1015 "},"\\":{"ha":463,"x_min":0,"x_max":0,"o":"m 488 -24 l 386 -24 l -25 1015 l 76 1015 "},"]":{"ha":360,"x_min":0,"x_max":0,"o":"m 0 -181 l 149 -181 l 149 921 l 0 921 l 0 1015 l 260 1015 l 260 -275 l 0 -275 "},"^":{"ha":833,"x_min":0,"x_max":0,"o":"m 372 968 l 461 968 l 764 367 l 667 367 l 415 867 l 168 367 l 69 367 "},"_":{"ha":694,"x_min":0,"x_max":0,"o":"m 0 -104 l 694 -104 l 694 -174 l 0 -174 "},"‘":{"ha":386,"x_min":0,"x_max":0,"o":"m 271 633 l 117 633 l 117 788 b 269 992 117 897 163 992 l 269 922 b 189 788 207 922 189 851 l 271 788 "},"a":{"ha":746,"x_min":0,"x_max":0,"o":"m 533 371 b 319 322 488 338 399 336 b 175 193 242 308 175 281 b 314 88 175 115 242 88 b 533 250 469 88 533 185 m 725 3 b 640 -17 704 -10 678 -17 b 540 94 579 -17 540 17 b 288 -17 475 18 388 -17 b 50 185 157 -17 50 42 b 293 406 50 347 171 382 b 535 511 424 431 535 422 b 375 631 535 614 450 631 b 196 494 275 631 201 600 l 78 494 b 382 735 85 672 222 735 b 651 538 511 735 651 706 l 651 168 b 689 88 651 113 651 88 b 725 94 699 88 710 89 "},"b":{"ha":824,"x_min":0,"x_max":0,"o":"m 649 365 b 426 631 649 500 579 631 b 207 360 268 631 207 494 b 433 88 207 218 271 88 b 649 365 594 88 649 225 m 93 992 l 211 992 l 211 621 l 214 621 b 443 735 253 700 344 735 b 774 357 664 735 774 560 b 446 -17 774 154 665 -17 b 214 96 372 -17 267 11 l 211 96 l 211 0 l 93 0 "},"c":{"ha":746,"x_min":0,"x_max":0,"o":"m 576 488 b 399 631 558 578 496 631 b 175 350 228 631 175 496 b 385 88 175 218 235 88 b 582 263 499 88 567 154 l 703 263 b 386 -17 676 88 567 -17 b 50 350 167 -17 50 136 b 389 735 50 565 161 735 b 699 488 551 735 682 658 "},"d":{"ha":824,"x_min":0,"x_max":0,"o":"m 731 0 l 613 0 l 613 97 l 610 97 b 381 -17 571 18 479 -17 b 50 361 160 -17 50 158 b 378 735 50 564 158 735 b 610 622 451 735 557 707 l 613 622 l 613 992 l 731 992 m 175 353 b 397 88 175 218 244 88 b 617 358 556 88 617 224 b 390 631 617 500 553 631 b 175 353 229 631 175 493 "},"e":{"ha":746,"x_min":0,"x_max":0,"o":"m 701 228 b 394 -17 669 69 556 -17 b 50 361 165 -17 57 142 b 388 735 50 576 192 735 b 713 324 642 735 719 497 l 175 324 b 399 88 171 199 242 88 b 585 228 496 88 564 135 m 588 428 b 381 631 582 540 497 631 b 175 428 257 631 183 538 "},"f":{"ha":411,"x_min":0,"x_max":0,"o":"m 138 614 l 17 614 l 17 718 l 138 718 l 138 825 b 336 1003 138 942 207 1003 b 413 992 358 1003 390 999 l 413 889 b 346 899 392 896 367 899 b 256 818 289 899 256 881 l 256 718 l 394 718 l 394 614 l 256 614 l 256 0 l 138 0 "},"g":{"ha":797,"x_min":0,"x_max":0,"o":"m 378 96 b 592 374 533 96 592 239 b 388 631 592 500 536 631 b 175 369 236 631 175 507 b 378 96 175 240 222 96 m 708 61 b 375 -292 708 -172 601 -292 b 78 -81 240 -292 85 -237 l 196 -81 b 382 -197 201 -167 304 -197 b 597 75 536 -197 597 -86 l 597 122 l 594 122 b 371 -8 556 35 461 -8 b 50 356 157 -8 50 160 b 382 735 50 525 133 735 b 596 615 472 735 553 694 l 597 615 l 597 718 l 708 718 "},"h":{"ha":772,"x_min":0,"x_max":0,"o":"m 89 992 l 207 992 l 207 613 l 210 613 b 436 735 249 699 350 735 b 683 472 625 735 683 626 l 683 0 l 565 0 l 565 486 b 419 631 565 574 510 631 b 207 406 276 631 207 535 l 207 0 l 89 0 "},"i":{"ha":308,"x_min":0,"x_max":0,"o":"m 96 718 l 214 718 l 214 0 l 96 0 m 214 847 l 96 847 l 96 992 l 214 992 "},"j":{"ha":308,"x_min":0,"x_max":0,"o":"m 214 -92 b 42 -275 214 -219 146 -275 b -19 -269 22 -275 1 -274 l -19 -168 b 29 -171 -3 -171 13 -171 b 96 -72 81 -171 96 -146 l 96 718 l 214 718 m 214 847 l 96 847 l 96 992 l 214 992 "},"k":{"ha":721,"x_min":0,"x_max":0,"o":"m 96 992 l 214 992 l 214 404 l 542 718 l 700 718 l 415 457 l 721 0 l 571 0 l 325 375 l 214 272 l 214 0 l 96 0 "},"l":{"ha":308,"x_min":0,"x_max":0,"o":"m 96 992 l 214 992 l 214 0 l 96 0 "},"m":{"ha":1185,"x_min":0,"x_max":0,"o":"m 89 718 l 200 718 l 200 613 l 203 613 b 435 735 256 693 336 735 b 632 613 522 735 603 700 b 857 735 681 689 765 735 b 1096 526 1000 735 1096 675 l 1096 0 l 978 0 l 978 471 b 839 631 978 560 954 631 b 651 447 725 631 651 558 l 651 0 l 533 0 l 533 471 b 399 631 533 564 504 631 b 207 447 258 631 207 501 l 207 0 l 89 0 "},"n":{"ha":772,"x_min":0,"x_max":0,"o":"m 89 718 l 200 718 l 200 604 l 203 604 b 436 735 253 693 333 735 b 683 472 625 735 683 626 l 683 0 l 565 0 l 565 486 b 419 631 565 574 510 631 b 207 406 276 631 207 535 l 207 0 l 89 0 "},"o":{"ha":797,"x_min":0,"x_max":0,"o":"m 50 358 b 399 735 50 569 171 735 b 747 358 626 735 747 569 b 399 -17 747 149 626 -17 b 50 358 171 -17 50 149 m 175 358 b 399 88 175 185 275 88 b 622 358 522 88 622 185 b 399 631 622 533 522 631 b 175 358 275 631 175 533 "},"p":{"ha":824,"x_min":0,"x_max":0,"o":"m 649 365 b 426 631 649 500 579 631 b 207 360 268 631 207 494 b 433 88 207 218 271 88 b 649 365 594 88 649 225 m 93 718 l 211 718 l 211 621 l 214 621 b 443 735 253 700 344 735 b 774 357 664 735 774 560 b 446 -17 774 154 665 -17 b 214 96 372 -17 267 11 l 211 96 l 211 -275 l 93 -275 "},"q":{"ha":824,"x_min":0,"x_max":0,"o":"m 731 -275 l 613 -275 l 613 97 l 610 97 b 381 -17 571 18 479 -17 b 50 361 160 -17 50 158 b 378 735 50 564 158 735 b 610 622 451 735 557 707 l 613 622 l 613 718 l 731 718 m 175 353 b 397 88 175 218 244 88 b 617 358 556 88 617 224 b 390 631 617 500 553 631 b 175 353 229 631 175 493 "},"r":{"ha":463,"x_min":0,"x_max":0,"o":"m 85 718 l 196 718 l 196 567 l 199 567 b 463 735 256 682 335 739 l 463 610 b 203 319 272 610 203 501 l 203 0 l 85 0 "},"s":{"ha":694,"x_min":0,"x_max":0,"o":"m 161 226 b 354 88 165 121 257 88 b 528 194 428 88 528 104 b 293 328 528 286 411 301 b 58 531 176 354 58 393 b 326 735 58 675 201 735 b 621 510 485 735 611 685 l 503 510 b 336 631 494 601 414 631 b 183 539 265 631 183 611 b 418 414 183 454 308 440 b 653 210 536 388 653 349 b 347 -17 653 39 493 -17 b 43 226 186 -17 50 49 "},"t":{"ha":438,"x_min":0,"x_max":0,"o":"m 253 718 l 396 718 l 396 614 l 253 614 l 253 168 b 342 104 253 114 268 104 l 396 104 l 396 0 l 306 0 b 135 157 183 0 135 25 l 135 614 l 13 614 l 13 718 l 135 718 l 135 933 l 253 933 "},"u":{"ha":772,"x_min":0,"x_max":0,"o":"m 683 0 l 572 0 l 572 114 l 569 114 b 336 -17 519 25 439 -17 b 89 246 147 -17 89 92 l 89 718 l 207 718 l 207 232 b 353 88 207 144 263 88 b 565 313 496 88 565 183 l 565 718 l 683 718 "},"v":{"ha":694,"x_min":0,"x_max":0,"o":"m 413 0 l 286 0 l 19 718 l 151 718 l 353 119 l 356 119 l 551 718 l 675 718 "},"w":{"ha":1053,"x_min":0,"x_max":0,"o":"m 800 0 l 675 0 l 529 571 l 526 571 l 382 0 l 254 0 l 24 718 l 154 718 l 317 131 l 319 131 l 464 718 l 593 718 l 743 131 l 746 131 l 907 718 l 1029 718 "},"x":{"ha":719,"x_min":0,"x_max":0,"o":"m 282 378 l 32 718 l 183 718 l 356 467 l 535 718 l 676 718 l 429 388 l 707 0 l 556 0 l 356 297 l 156 0 l 13 0 "},"y":{"ha":694,"x_min":0,"x_max":0,"o":"m 371 -96 b 163 -287 317 -236 268 -287 b 81 -275 135 -287 107 -285 l 81 -167 b 150 -183 103 -174 126 -183 b 247 -118 199 -183 225 -160 l 296 4 l 11 718 l 144 718 l 354 131 l 357 131 l 558 718 l 683 718 "},"z":{"ha":667,"x_min":0,"x_max":0,"o":"m 31 90 l 464 614 l 58 614 l 58 718 l 617 718 l 617 638 l 178 104 l 636 104 l 636 0 l 31 0 "},"{":{"ha":463,"x_min":0,"x_max":0,"o":"m 429 932 l 360 932 b 293 813 306 932 293 871 l 293 558 b 172 372 293 428 204 381 l 172 368 b 293 182 204 364 293 324 l 293 -72 b 360 -192 293 -129 306 -192 l 429 -192 l 429 -275 l 332 -275 b 182 -93 263 -275 182 -211 l 182 160 b 67 322 182 261 125 322 l 67 417 b 182 581 125 417 182 483 l 182 833 b 332 1015 182 951 263 1015 l 429 1015 "},"|":{"ha":308,"x_min":0,"x_max":0,"o":"m 107 1092 l 201 1092 l 201 -297 l 107 -297 "},"}":{"ha":463,"x_min":0,"x_max":0,"o":"m 33 -192 l 103 -192 b 169 -72 157 -192 169 -131 l 169 182 b 290 368 169 313 258 360 l 290 372 b 169 558 258 376 169 417 l 169 810 b 103 932 169 869 157 932 l 33 932 l 33 1015 l 131 1015 b 281 833 200 1015 281 951 l 281 581 b 396 417 281 479 338 417 l 396 322 b 281 160 338 322 281 257 l 281 -93 b 131 -275 281 -211 200 -275 l 33 -275 "},"~":{"ha":833,"x_min":0,"x_max":0,"o":"m 738 374 b 564 254 696 315 650 254 b 422 300 513 254 468 275 b 263 354 378 325 326 354 b 146 249 201 354 168 297 l 96 318 b 269 438 126 376 176 438 b 424 393 317 438 371 417 b 565 338 475 371 528 338 b 688 443 621 338 656 394 "},"¡":{"ha":360,"x_min":0,"x_max":0,"o":"m 114 31 l 149 463 l 211 463 l 246 31 l 246 -275 l 114 -275 m 257 564 l 103 564 l 103 718 l 257 718 "},"¢":{"ha":772,"x_min":0,"x_max":0,"o":"m 378 631 b 189 350 235 613 189 488 b 378 88 189 224 243 97 m 378 -17 b 64 350 175 -8 64 144 b 378 735 64 550 169 721 l 378 867 l 432 867 l 432 735 b 714 488 583 731 694 656 l 593 488 b 432 631 575 572 521 628 l 432 88 b 600 263 532 97 585 168 l 718 263 b 432 -17 704 125 606 -17 l 432 -161 l 378 -161 "},"£":{"ha":772,"x_min":0,"x_max":0,"o":"m 65 517 l 146 517 b 81 733 108 579 81 647 b 397 1015 81 910 228 1015 b 725 657 601 1015 729 894 l 607 657 b 404 911 603 817 538 911 b 206 729 293 911 206 832 b 278 517 206 638 246 585 l 499 517 l 499 454 l 308 454 b 336 350 324 425 336 389 b 175 89 336 225 258 157 l 178 86 b 324 126 225 107 268 126 b 456 106 378 126 418 115 b 572 81 493 94 529 81 b 696 132 617 81 663 106 l 756 40 b 553 -24 700 -7 625 -24 b 415 4 507 -24 463 -11 b 269 33 369 18 322 33 b 131 -15 215 33 174 14 l 65 76 b 218 325 144 129 218 218 b 183 454 218 367 200 418 l 65 454 "},"⁄":{"ha":232,"x_min":0,"x_max":0,"o":"m 374 1007 l 463 1007 l -142 -39 l -231 -39 "},"¥":{"ha":772,"x_min":0,"x_max":0,"o":"m 322 242 l 126 242 l 126 325 l 322 325 l 322 383 l 297 429 l 126 429 l 126 513 l 254 513 l 0 992 l 151 992 l 393 501 l 628 992 l 772 992 l 525 513 l 654 513 l 654 429 l 479 429 l 454 383 l 454 325 l 654 325 l 654 242 l 454 242 l 454 0 l 322 0 "},"ƒ":{"ha":772,"x_min":0,"x_max":0,"o":"m 664 888 l 582 888 b 496 815 532 888 507 863 l 453 624 l 594 624 l 575 529 l 436 529 l 360 97 b 96 -229 315 -156 250 -229 l 4 -229 l 24 -125 b 217 17 169 -125 193 -111 l 314 529 l 186 529 l 204 624 l 331 624 l 367 813 b 581 992 388 918 463 992 l 683 992 "},"§":{"ha":772,"x_min":0,"x_max":0,"o":"m 264 583 b 163 457 211 565 163 515 b 308 288 163 369 240 328 b 503 172 375 253 440 215 b 603 301 557 194 603 239 b 456 465 603 381 515 429 b 264 583 392 504 326 542 m 528 758 b 388 911 526 843 475 911 b 256 792 314 911 256 872 b 486 588 256 703 369 651 b 717 318 601 526 717 453 b 572 114 717 228 656 146 b 654 -53 628 72 654 17 b 394 -275 654 -187 544 -275 b 115 -12 231 -275 126 -175 l 233 -12 b 392 -171 235 -107 297 -171 b 532 -56 460 -171 532 -133 b 290 161 532 42 411 93 b 49 451 171 224 49 301 b 197 643 49 538 115 621 b 133 790 157 685 133 731 b 390 1015 133 935 261 1015 b 646 758 542 1015 642 932 "},"¤":{"ha":772,"x_min":0,"x_max":0,"o":"m 103 839 l 181 761 b 390 832 233 806 313 832 b 589 763 464 832 539 806 l 668 840 l 738 769 l 661 693 b 733 488 708 642 733 564 b 661 279 733 411 708 336 l 738 201 l 672 136 l 594 217 b 389 140 542 167 465 140 b 178 215 308 140 233 165 l 101 135 l 35 201 l 111 282 b 39 485 65 338 39 408 b 114 690 39 561 63 639 l 35 771 m 390 728 b 157 485 258 728 157 621 b 389 244 157 350 260 244 b 615 488 518 244 615 354 b 390 728 615 618 518 728 "},"'":{"ha":386,"x_min":0,"x_max":0,"o":"m 146 992 l 240 992 l 240 633 l 146 633 "},"“":{"ha":592,"x_min":0,"x_max":0,"o":"m 500 633 l 346 633 l 346 788 b 499 992 346 897 392 992 l 499 922 b 418 788 436 922 418 851 l 500 788 m 246 633 l 92 633 l 92 788 b 244 992 92 897 138 992 l 244 922 b 164 788 182 922 164 851 l 246 788 "},"«":{"ha":643,"x_min":0,"x_max":0,"o":"m 342 325 l 342 447 l 553 614 l 553 494 l 414 386 l 553 278 l 553 158 m 69 325 l 69 447 l 281 614 l 281 494 l 142 386 l 281 278 l 281 158 "},"‹":{"ha":360,"x_min":0,"x_max":0,"o":"m 69 325 l 69 447 l 281 614 l 281 494 l 142 386 l 281 278 l 281 158 "},"›":{"ha":360,"x_min":0,"x_max":0,"o":"m 290 447 l 290 325 l 79 158 l 79 278 l 218 386 l 79 494 l 79 614 "},"ﬁ":{"ha":719,"x_min":0,"x_max":0,"o":"m 138 614 l 17 614 l 17 718 l 138 718 l 138 825 b 336 1003 138 942 207 1003 b 413 992 358 1003 390 999 l 413 889 b 346 899 392 896 367 899 b 256 818 289 899 256 881 l 256 718 l 394 718 l 394 614 l 256 614 l 256 0 l 138 0 m 507 847 l 507 992 l 625 992 l 625 847 m 507 0 l 507 718 l 625 718 l 625 0 "},"ﬂ":{"ha":719,"x_min":0,"x_max":0,"o":"m 138 614 l 17 614 l 17 718 l 138 718 l 138 825 b 336 1003 138 942 207 1003 b 413 992 358 1003 390 999 l 413 889 b 346 899 392 896 367 899 b 256 818 289 899 256 881 l 256 718 l 394 718 l 394 614 l 256 614 l 256 0 l 138 0 m 507 992 l 625 992 l 625 0 l 507 0 "},"–":{"ha":694,"x_min":0,"x_max":0,"o":"m 0 442 l 694 442 l 694 331 l 0 331 "},"†":{"ha":772,"x_min":0,"x_max":0,"o":"m 328 614 l 58 614 l 58 718 l 328 718 l 328 992 l 439 992 l 439 718 l 714 718 l 714 614 l 439 614 l 439 -215 l 328 -215 "},"‡":{"ha":772,"x_min":0,"x_max":0,"o":"m 328 58 l 58 58 l 58 163 l 328 163 l 328 614 l 58 614 l 58 718 l 328 718 l 328 992 l 439 992 l 439 718 l 714 718 l 714 614 l 439 614 l 439 163 l 714 163 l 714 58 l 439 58 l 439 -215 l 328 -215 "},"·":{"ha":386,"x_min":0,"x_max":0,"o":"m 104 432 b 193 521 104 481 146 521 b 282 432 240 521 282 479 b 194 343 282 388 240 343 b 104 432 146 343 104 385 "},"¶":{"ha":833,"x_min":0,"x_max":0,"o":"m 715 -215 l 621 -215 l 621 915 l 451 915 l 451 -215 l 357 -215 l 357 447 b 67 706 188 447 67 561 b 383 992 67 886 189 992 l 715 992 "},"•":{"ha":694,"x_min":0,"x_max":0,"o":"m 100 496 b 347 743 100 633 210 743 b 596 496 485 743 596 633 b 347 247 596 358 485 247 b 100 496 210 247 100 358 "},"‚":{"ha":386,"x_min":0,"x_max":0,"o":"m 115 154 l 269 154 l 269 0 b 117 -204 269 -110 224 -204 l 117 -135 b 197 0 179 -135 197 -64 l 115 0 "},"„":{"ha":592,"x_min":0,"x_max":0,"o":"m 92 154 l 246 154 l 246 0 b 93 -204 246 -110 200 -204 l 93 -135 b 174 0 156 -135 174 -64 l 92 0 m 346 154 l 500 154 l 500 0 b 347 -204 500 -110 454 -204 l 347 -135 b 428 0 410 -135 428 -64 l 346 0 "},"”":{"ha":592,"x_min":0,"x_max":0,"o":"m 346 992 l 500 992 l 500 838 b 347 633 500 728 454 633 l 347 703 b 428 838 410 703 428 774 l 346 838 m 92 992 l 246 992 l 246 838 b 93 633 246 728 200 633 l 93 703 b 174 838 156 703 174 774 l 92 838 "},"»":{"ha":643,"x_min":0,"x_max":0,"o":"m 301 447 l 301 325 l 90 158 l 90 278 l 229 386 l 90 494 l 90 614 m 574 447 l 574 325 l 363 158 l 363 278 l 501 386 l 363 494 l 363 614 "},"…":{"ha":1389,"x_min":0,"x_max":0,"o":"m 154 154 l 308 154 l 308 0 l 154 0 m 617 154 l 771 154 l 771 0 l 617 0 m 1079 154 l 1233 154 l 1233 0 l 1079 0 "},"‰":{"ha":1594,"x_min":0,"x_max":0,"o":"m 100 743 b 306 985 100 878 156 985 b 508 750 453 985 508 885 b 453 574 508 688 493 624 b 303 511 417 528 360 511 b 100 743 158 511 100 610 m 204 747 b 304 588 204 675 218 588 b 404 746 386 588 404 678 b 310 908 404 806 389 908 b 204 747 225 908 204 818 m 872 1003 l 990 1003 l 244 -31 l 125 -31 m 607 215 b 813 457 607 350 663 457 b 1015 222 960 457 1015 357 b 960 46 1015 160 1000 96 b 810 -17 924 0 867 -17 b 607 215 665 -17 607 82 m 711 219 b 811 60 711 147 725 60 b 911 218 893 60 911 150 b 817 381 911 278 896 381 b 711 219 732 381 711 290 m 1086 215 b 1292 457 1086 350 1142 457 b 1494 222 1439 457 1494 357 b 1439 46 1494 160 1479 96 b 1289 -17 1403 0 1346 -17 b 1086 215 1144 -17 1086 82 m 1190 219 b 1290 60 1190 147 1204 60 b 1390 218 1372 60 1390 150 b 1296 381 1390 278 1375 381 b 1190 219 1211 381 1190 290 "},"¿":{"ha":772,"x_min":0,"x_max":0,"o":"m 699 42 b 388 -292 701 -149 582 -292 b 94 -14 217 -292 94 -190 b 214 222 94 100 153 164 b 335 428 274 279 335 333 l 335 471 l 453 471 l 453 417 b 328 185 453 303 383 240 b 219 -25 274 131 213 78 b 388 -187 226 -126 289 -187 b 581 42 519 -187 582 -86 m 468 564 l 314 564 l 314 718 l 468 718 "},"`":{"ha":308,"x_min":0,"x_max":0,"o":"m -32 1015 l 119 1015 l 239 817 l 150 817 "},"´":{"ha":308,"x_min":0,"x_max":0,"o":"m 189 1015 l 340 1015 l 158 817 l 69 817 "},"ˆ":{"ha":308,"x_min":0,"x_max":0,"o":"m 89 1015 l 218 1015 l 363 817 l 246 817 l 150 950 l 53 817 l -54 817 "},"˜":{"ha":308,"x_min":0,"x_max":0,"o":"m 396 988 b 353 876 390 949 376 911 b 243 833 329 850 296 833 b 151 861 219 833 185 847 b 58 888 118 874 83 888 b -8 829 28 888 -11 864 l -81 829 b 65 982 -58 911 -22 982 b 168 954 101 982 136 968 b 260 926 200 940 231 926 b 324 988 296 926 315 960 "},"¯":{"ha":308,"x_min":0,"x_max":0,"o":"m -82 938 l 392 938 l 392 861 l -82 861 "},"˘":{"ha":308,"x_min":0,"x_max":0,"o":"m 7 1015 b 163 900 29 938 83 900 b 300 1015 243 900 272 944 l 371 1015 b 151 824 351 897 274 824 b -62 1015 25 824 -44 892 "},"˙":{"ha":308,"x_min":0,"x_max":0,"o":"m 217 822 l 92 822 l 92 967 l 217 967 "},"¨":{"ha":308,"x_min":0,"x_max":0,"o":"m 222 967 l 347 967 l 347 822 l 222 822 m -39 967 l 86 967 l 86 822 l -39 822 "},"˚":{"ha":308,"x_min":0,"x_max":0,"o":"m 60 919 b 154 825 60 867 101 825 b 249 919 207 825 249 867 b 154 1014 249 972 207 1014 b 60 919 101 1014 60 972 m -3 919 b 154 1076 -3 1006 68 1076 b 311 919 240 1076 311 1006 b 154 763 311 833 240 763 b -3 919 68 763 -3 833 "},"¸":{"ha":308,"x_min":0,"x_max":0,"o":"m 32 -204 b 117 -222 54 -212 88 -222 b 203 -179 154 -222 203 -211 b 138 -136 203 -154 174 -136 b 81 -147 115 -136 101 -140 l 57 -108 l 142 0 l 200 0 l 142 -74 l 144 -76 b 190 -67 153 -71 167 -67 b 307 -168 249 -67 307 -100 b 135 -292 307 -261 211 -292 b 7 -265 90 -292 49 -281 "},"˝":{"ha":308,"x_min":0,"x_max":0,"o":"m 46 1015 l 192 1015 l 25 817 l -67 817 m 263 1015 l 408 1015 l 242 817 l 150 817 "},"˛":{"ha":308,"x_min":0,"x_max":0,"o":"m 319 4 b 200 -164 222 -76 200 -125 b 253 -222 200 -193 215 -222 b 339 -181 296 -222 318 -207 l 383 -206 b 233 -292 346 -269 290 -292 b 106 -178 200 -292 106 -287 b 264 4 106 -153 122 -81 "},"ˇ":{"ha":308,"x_min":0,"x_max":0,"o":"m 219 817 l 90 817 l -54 1015 l 63 1015 l 158 882 l 256 1015 l 363 1015 "},"—":{"ha":1389,"x_min":0,"x_max":0,"o":"m 181 442 l 1208 442 l 1208 331 l 181 331 "},"Æ":{"ha":1286,"x_min":0,"x_max":0,"o":"m 492 992 l 1235 992 l 1235 881 l 747 881 l 747 565 l 1206 565 l 1206 454 l 747 454 l 747 111 l 1243 111 l 1243 0 l 622 0 l 622 289 l 281 289 l 139 0 l -10 0 m 565 881 l 332 400 l 622 400 l 622 881 "},"ª":{"ha":525,"x_min":0,"x_max":0,"o":"m 440 642 b 460 597 440 608 446 597 b 490 600 469 597 481 597 l 490 539 b 431 528 472 532 454 528 b 360 592 388 528 363 551 b 197 528 319 550 263 528 b 35 651 110 528 35 565 b 201 789 35 749 121 781 b 361 847 331 803 361 811 b 254 915 361 908 307 915 b 139 838 188 915 142 897 l 56 838 b 260 985 61 944 153 985 b 440 864 343 985 440 964 m 215 597 b 357 693 319 597 357 651 l 357 758 b 218 726 328 740 269 735 b 129 654 168 718 129 703 b 215 597 129 607 169 597 "},"Ł":{"ha":772,"x_min":0,"x_max":0,"o":"m 108 333 l -1 256 l -1 361 l 108 439 l 108 992 l 240 992 l 240 533 l 557 756 l 557 650 l 240 428 l 240 111 l 765 111 l 765 0 l 108 0 "},"Ø":{"ha":1056,"x_min":0,"x_max":0,"o":"m 767 801 b 528 904 713 864 633 904 b 185 496 286 904 185 696 b 254 236 185 403 207 310 m 292 186 b 528 88 346 125 424 88 b 871 496 769 88 871 296 b 804 751 871 586 850 679 m 1004 972 l 890 847 b 1003 496 965 751 1003 626 b 528 -24 1003 226 843 -24 b 210 96 393 -24 286 22 l 97 -28 l 51 14 l 168 142 b 53 496 92 236 53 364 b 528 1015 53 765 213 1015 b 850 893 665 1015 772 968 l 960 1014 "},"Œ":{"ha":1492,"x_min":0,"x_max":0,"o":"m 517 88 b 765 283 656 88 765 169 l 765 701 b 744 797 765 731 765 765 b 519 904 707 854 625 904 b 185 488 294 904 185 711 b 517 88 185 267 299 88 m 765 96 l 763 96 b 507 -24 714 19 608 -24 b 53 493 214 -24 53 203 b 518 1015 53 792 224 1015 b 763 910 610 1015 724 981 l 765 910 l 765 992 l 1428 992 l 1428 881 l 897 881 l 897 565 l 1383 565 l 1383 454 l 897 454 l 897 111 l 1436 111 l 1436 0 l 765 0 "},"º":{"ha":533,"x_min":0,"x_max":0,"o":"m 267 985 b 499 754 418 985 499 885 b 268 528 499 621 419 528 b 35 754 121 528 35 622 b 267 985 35 883 115 985 m 267 915 b 129 754 192 915 129 865 b 268 597 129 671 168 597 b 404 753 367 597 404 669 b 267 915 404 888 326 915 "},"æ":{"ha":1208,"x_min":0,"x_max":0,"o":"m 1050 428 b 851 631 1047 540 976 631 b 649 428 725 631 649 543 l 1050 428 m 175 193 b 314 88 175 115 242 88 b 538 250 469 88 538 185 l 538 371 b 319 322 490 340 394 336 b 175 193 242 308 175 281 m 649 324 b 864 88 649 196 718 88 b 1046 226 951 88 1024 133 l 1167 226 b 856 -17 1132 71 1015 -17 b 596 124 746 -17 643 17 b 293 -17 542 25 426 -17 b 50 185 157 -17 50 42 b 293 406 50 347 171 382 b 538 519 467 439 538 433 b 375 631 538 617 454 631 b 196 494 275 631 201 600 l 78 494 b 382 735 85 672 222 735 b 622 631 465 735 579 721 b 851 735 671 706 764 735 b 1175 324 1101 735 1175 547 "},"ı":{"ha":308,"x_min":0,"x_max":0,"o":"m 96 0 l 96 718 l 214 718 l 214 0 "},"ł":{"ha":308,"x_min":0,"x_max":0,"o":"m 96 446 l -1 369 l -1 468 l 96 546 l 96 992 l 214 992 l 214 639 l 311 717 l 311 618 l 214 540 l 214 0 l 96 0 "},"ø":{"ha":797,"x_min":0,"x_max":0,"o":"m 553 565 b 399 631 513 608 458 631 b 175 358 275 631 175 533 b 217 190 175 292 190 236 m 247 150 b 399 88 288 110 340 88 b 622 358 522 88 622 185 b 583 524 622 426 607 482 m 667 615 b 747 358 719 550 747 460 b 399 -17 747 149 626 -17 b 169 63 303 -17 226 13 l 86 -31 l 47 3 l 133 99 b 50 358 78 167 50 257 b 399 735 50 569 171 735 b 632 653 496 735 574 706 l 713 743 l 750 707 "},"œ":{"ha":1238,"x_min":0,"x_max":0,"o":"m 679 324 b 886 88 675 199 746 88 b 1081 228 979 88 1053 139 l 1193 228 b 886 -17 1146 65 1046 -17 b 625 125 765 -17 669 21 b 376 -17 581 21 483 -17 b 50 360 150 -17 50 156 b 376 735 50 569 154 735 b 625 608 486 735 578 708 b 879 735 675 693 778 735 b 1200 324 1118 735 1213 550 m 1075 428 b 879 631 1075 549 1003 631 b 679 428 756 631 678 546 m 576 361 b 376 631 576 493 539 631 b 175 344 225 631 175 485 b 376 88 175 222 231 88 b 576 361 535 88 576 232 "},"ß":{"ha":772,"x_min":0,"x_max":0,"o":"m 89 738 b 364 1015 89 903 199 1015 b 651 772 500 1015 651 933 b 507 557 651 669 610 590 l 507 554 b 696 306 632 539 696 426 b 375 -17 696 115 565 -17 b 315 -11 356 -17 335 -14 l 315 92 b 363 88 331 88 347 88 b 571 290 489 88 571 171 b 315 499 571 471 471 499 l 315 593 b 526 754 428 586 526 625 b 372 911 526 842 460 911 b 207 717 275 911 207 871 l 207 0 l 89 0 "},"¹":{"ha":463,"x_min":0,"x_max":0,"o":"m 346 389 l 251 389 l 251 817 l 92 817 l 92 886 b 276 985 179 888 260 907 l 346 985 "},"¬":{"ha":833,"x_min":0,"x_max":0,"o":"m 767 151 l 672 151 l 672 444 l 67 444 l 67 539 l 767 539 "},"µ":{"ha":772,"x_min":0,"x_max":0,"o":"m 683 0 l 572 0 l 572 114 l 569 114 b 336 -17 519 25 439 -17 b 210 36 276 -17 233 -1 l 207 36 l 207 -275 l 89 -275 l 89 718 l 207 718 l 207 232 b 353 88 207 144 263 88 b 565 313 496 88 565 183 l 565 718 l 683 718 "},"™":{"ha":1375,"x_min":0,"x_max":0,"o":"m 542 915 l 363 915 l 363 419 l 268 419 l 268 915 l 89 915 l 89 992 l 542 992 m 1288 419 l 1193 419 l 1193 897 l 1190 897 l 1003 419 l 943 419 l 756 897 l 753 897 l 753 419 l 658 419 l 658 992 l 804 992 l 975 557 l 1143 992 l 1288 992 "},"Ð":{"ha":978,"x_min":0,"x_max":0,"o":"m 108 471 l 11 471 l 11 565 l 108 565 l 108 992 l 449 992 b 925 519 754 992 925 839 b 449 0 925 188 779 0 l 108 0 m 240 565 l 538 565 l 538 471 l 240 471 l 240 111 l 460 111 b 793 501 550 111 793 136 b 463 881 793 738 706 881 l 240 881 "},"½":{"ha":1158,"x_min":0,"x_max":0,"o":"m 792 1007 l 881 1007 l 276 -39 l 188 -39 m 304 389 l 210 389 l 210 817 l 50 817 l 50 886 b 235 985 138 886 218 907 l 304 985 m 697 382 b 910 596 697 510 781 596 b 1115 421 1022 596 1115 532 b 958 219 1115 317 1036 265 b 781 76 879 172 796 133 l 1107 76 l 1107 0 l 686 0 b 860 242 693 140 769 190 b 1021 422 968 304 1021 340 b 906 519 1021 481 969 519 b 792 382 822 519 792 454 "},"±":{"ha":833,"x_min":0,"x_max":0,"o":"m 67 471 l 369 471 l 369 701 l 464 701 l 464 471 l 767 471 l 767 376 l 464 376 l 464 144 l 369 144 l 369 376 l 67 376 m 67 94 l 767 94 l 767 0 l 67 0 "},"Þ":{"ha":900,"x_min":0,"x_max":0,"o":"m 108 0 l 108 992 l 240 992 l 240 833 l 543 833 b 847 539 740 833 847 724 b 543 247 847 356 740 246 l 240 247 l 240 0 m 240 358 l 499 358 b 715 539 647 357 715 421 b 499 722 715 658 647 722 l 240 722 "},"¼":{"ha":1158,"x_min":0,"x_max":0,"o":"m 1004 210 l 1088 210 l 1088 133 l 1004 133 l 1004 0 l 918 0 l 918 133 l 642 133 l 642 214 l 933 596 l 1004 596 m 710 210 l 918 210 l 918 478 l 915 478 m 813 1007 l 901 1007 l 297 -39 l 208 -39 m 304 389 l 210 389 l 210 817 l 50 817 l 50 886 b 235 985 138 886 218 907 l 304 985 "},"÷":{"ha":833,"x_min":0,"x_max":0,"o":"m 67 399 l 767 399 l 767 304 l 67 304 m 328 638 b 417 726 328 686 369 726 b 506 638 464 726 506 685 b 418 549 506 593 464 549 b 328 638 369 549 328 590 m 328 65 b 417 154 328 114 369 154 b 506 65 464 154 506 113 b 418 -24 506 21 464 -24 b 328 65 369 -24 328 18 "},"¦":{"ha":308,"x_min":0,"x_max":0,"o":"m 107 224 l 201 224 l 201 -124 l 107 -124 m 201 571 l 107 571 l 107 918 l 201 918 "},"°":{"ha":556,"x_min":0,"x_max":0,"o":"m 78 785 b 278 985 78 896 167 985 b 478 785 389 985 478 896 b 278 585 478 674 389 585 b 78 785 167 585 78 674 m 147 785 b 278 654 147 719 196 654 b 408 785 360 654 408 719 b 278 915 408 850 360 915 b 147 785 196 915 147 850 "},"þ":{"ha":824,"x_min":0,"x_max":0,"o":"m 649 365 b 426 631 649 500 579 631 b 207 360 268 631 207 494 b 433 88 207 218 271 88 b 649 365 594 88 649 225 m 211 621 l 214 621 b 443 735 253 700 344 735 b 774 357 664 735 774 560 b 446 -17 774 154 665 -17 b 214 96 372 -17 267 11 l 211 96 l 211 -275 l 93 -275 l 93 992 l 211 992 "},"¾":{"ha":1158,"x_min":0,"x_max":0,"o":"m 1028 210 l 1111 210 l 1111 133 l 1028 133 l 1028 0 l 942 0 l 942 133 l 665 133 l 665 214 l 957 596 l 1028 596 m 735 204 l 943 204 l 943 472 l 940 472 m 903 1007 l 992 1007 l 388 -39 l 299 -39 m 246 732 l 279 732 b 394 822 340 732 394 757 b 288 908 394 878 349 908 b 176 789 213 908 176 857 l 82 789 b 288 985 89 908 164 985 b 489 822 401 985 489 931 b 394 704 489 769 446 725 l 394 701 b 515 560 475 686 515 631 b 290 379 515 438 406 379 b 68 575 167 379 68 446 l 163 575 b 290 456 164 499 210 456 b 421 556 360 456 421 493 b 292 663 421 633 357 663 l 246 663 "},"²":{"ha":463,"x_min":0,"x_max":0,"o":"m 31 771 b 243 985 31 899 114 985 b 449 810 356 985 449 921 b 292 608 449 706 369 654 b 114 465 213 561 129 522 l 440 465 l 440 389 l 19 389 b 193 631 26 529 103 579 b 354 811 301 693 354 729 b 239 908 354 869 303 908 b 125 771 156 908 125 843 "},"®":{"ha":1111,"x_min":0,"x_max":0,"o":"m 33 499 b 557 1015 33 792 272 1015 b 1078 499 840 1015 1078 792 b 557 -24 1078 200 840 -24 b 33 499 272 -24 33 200 m 128 499 b 557 53 128 244 314 53 b 983 499 797 53 983 244 b 557 939 983 747 797 939 b 128 499 314 939 128 747 m 354 800 l 589 800 b 801 626 733 800 801 743 b 642 461 801 517 732 471 l 815 193 l 714 193 l 549 454 l 449 454 l 449 193 l 354 193 m 449 531 l 547 531 b 707 631 631 531 707 535 b 574 724 707 711 638 724 l 449 724 "},"−":{"ha":833,"x_min":0,"x_max":0,"o":"m 67 399 l 767 399 l 767 304 l 67 304 "},"ð":{"ha":797,"x_min":0,"x_max":0,"o":"m 378 703 b 571 625 451 703 521 682 l 574 625 b 404 835 531 721 447 804 l 244 760 l 192 815 l 343 886 b 246 953 314 911 272 938 l 343 1015 b 450 938 368 997 414 967 l 617 1015 l 665 964 l 506 890 b 747 358 671 754 747 571 b 399 -17 747 149 626 -17 b 50 358 171 -17 50 149 b 378 703 50 539 167 703 m 392 599 b 175 358 250 599 175 500 b 399 88 175 185 275 88 b 622 358 522 88 622 185 b 392 599 622 485 554 599 "},"×":{"ha":833,"x_min":0,"x_max":0,"o":"m 99 100 l 351 353 l 100 603 l 167 669 l 418 419 l 668 669 l 735 603 l 485 353 l 736 100 l 669 33 l 418 286 l 165 33 "},"³":{"ha":463,"x_min":0,"x_max":0,"o":"m 183 732 l 217 732 b 332 822 278 732 332 757 b 225 908 332 878 286 908 b 114 789 150 908 114 857 l 19 789 b 225 985 26 908 101 985 b 426 822 339 985 426 931 b 332 704 426 769 383 725 l 332 701 b 453 560 413 686 453 631 b 228 379 453 438 343 379 b 6 575 104 379 6 446 l 100 575 b 228 456 101 499 147 456 b 358 556 297 456 358 493 b 229 663 358 633 294 663 l 183 663 "},"©":{"ha":1111,"x_min":0,"x_max":0,"o":"m 33 499 b 557 1015 33 792 272 1015 b 1078 499 840 1015 1078 792 b 557 -24 1078 200 840 -24 b 33 499 272 -24 33 200 m 128 499 b 557 53 128 244 314 53 b 983 499 797 53 983 244 b 557 939 983 746 797 939 b 128 499 314 939 128 746 m 832 396 b 574 178 803 261 701 178 b 265 496 386 178 265 314 b 569 813 265 681 379 813 b 831 601 701 813 810 740 l 743 601 b 571 736 728 679 663 736 b 360 499 433 736 360 632 b 574 254 360 368 442 254 b 743 396 665 254 731 314 "},"Á":{"ha":900,"x_min":0,"x_max":0,"o":"m 378 992 l 524 992 l 911 0 l 765 0 l 657 299 l 238 299 l 126 0 l -10 0 m 279 410 l 615 410 l 450 872 l 447 872 m 485 1261 l 636 1261 l 454 1063 l 365 1063 "},"Â":{"ha":900,"x_min":0,"x_max":0,"o":"m 378 992 l 524 992 l 911 0 l 765 0 l 657 299 l 238 299 l 126 0 l -10 0 m 279 410 l 615 410 l 450 872 l 447 872 m 385 1261 l 514 1261 l 658 1063 l 542 1063 l 446 1196 l 349 1063 l 242 1063 "},"Ä":{"ha":900,"x_min":0,"x_max":0,"o":"m 378 992 l 524 992 l 911 0 l 765 0 l 657 299 l 238 299 l 126 0 l -10 0 m 279 410 l 615 410 l 450 872 l 447 872 m 518 1213 l 643 1213 l 643 1068 l 518 1068 m 257 1213 l 382 1213 l 382 1068 l 257 1068 "},"À":{"ha":900,"x_min":0,"x_max":0,"o":"m 378 992 l 524 992 l 911 0 l 765 0 l 657 299 l 238 299 l 126 0 l -10 0 m 279 410 l 615 410 l 450 872 l 447 872 m 264 1261 l 415 1261 l 535 1063 l 446 1063 "},"Å":{"ha":900,"x_min":0,"x_max":0,"o":"m 378 992 l 524 992 l 911 0 l 765 0 l 657 299 l 238 299 l 126 0 l -10 0 m 279 410 l 615 410 l 450 872 l 447 872 m 356 1165 b 450 1071 356 1113 397 1071 b 544 1165 503 1071 544 1113 b 450 1260 544 1218 503 1260 b 356 1165 397 1260 356 1218 m 293 1165 b 450 1322 293 1251 364 1322 b 607 1165 536 1322 607 1251 b 450 1008 607 1079 536 1008 b 293 1165 364 1008 293 1079 "},"Ã":{"ha":900,"x_min":0,"x_max":0,"o":"m 378 992 l 524 992 l 911 0 l 765 0 l 657 299 l 238 299 l 126 0 l -10 0 m 279 410 l 615 410 l 450 872 l 447 872 m 692 1233 b 649 1122 686 1194 672 1157 b 539 1079 625 1096 592 1079 b 447 1107 515 1079 481 1093 b 354 1133 414 1119 379 1133 b 288 1075 324 1133 285 1110 l 215 1075 b 361 1228 238 1157 274 1228 b 464 1200 397 1228 432 1214 b 556 1172 496 1186 526 1172 b 619 1233 592 1172 611 1206 "},"Ç":{"ha":1003,"x_min":0,"x_max":0,"o":"m 806 693 b 528 904 778 833 665 904 b 192 503 292 904 192 710 b 529 88 192 276 292 88 b 815 374 703 88 803 210 l 947 374 b 529 -22 922 131 772 -19 l 489 -74 l 492 -76 b 538 -67 500 -71 514 -67 b 654 -168 596 -67 654 -100 b 482 -292 654 -261 558 -292 b 354 -265 438 -292 396 -281 l 379 -204 b 464 -222 401 -212 435 -222 b 550 -179 501 -222 550 -211 b 485 -136 550 -154 521 -136 b 428 -147 463 -136 449 -140 l 404 -108 l 472 -21 b 60 493 194 0 60 218 b 529 1015 60 781 224 1015 b 938 693 736 1015 907 904 "},"É":{"ha":849,"x_min":0,"x_max":0,"o":"m 108 992 l 793 992 l 793 881 l 240 881 l 240 565 l 756 565 l 756 454 l 240 454 l 240 111 l 797 111 l 797 0 l 108 0 m 460 1261 l 611 1261 l 429 1063 l 340 1063 "},"Ê":{"ha":849,"x_min":0,"x_max":0,"o":"m 108 992 l 793 992 l 793 881 l 240 881 l 240 565 l 756 565 l 756 454 l 240 454 l 240 111 l 797 111 l 797 0 l 108 0 m 360 1261 l 489 1261 l 633 1063 l 517 1063 l 421 1196 l 324 1063 l 217 1063 "},"Ë":{"ha":849,"x_min":0,"x_max":0,"o":"m 108 992 l 793 992 l 793 881 l 240 881 l 240 565 l 756 565 l 756 454 l 240 454 l 240 111 l 797 111 l 797 0 l 108 0 m 493 1213 l 618 1213 l 618 1068 l 493 1068 m 232 1213 l 357 1213 l 357 1068 l 232 1068 "},"È":{"ha":849,"x_min":0,"x_max":0,"o":"m 108 992 l 793 992 l 793 881 l 240 881 l 240 565 l 756 565 l 756 454 l 240 454 l 240 111 l 797 111 l 797 0 l 108 0 m 239 1261 l 390 1261 l 510 1063 l 421 1063 "},"Í":{"ha":360,"x_min":0,"x_max":0,"o":"m 114 992 l 246 992 l 246 0 l 114 0 m 215 1261 l 367 1261 l 185 1063 l 96 1063 "},"Î":{"ha":360,"x_min":0,"x_max":0,"o":"m 114 992 l 246 992 l 246 0 l 114 0 m 115 1261 l 244 1261 l 389 1063 l 272 1063 l 176 1196 l 79 1063 l -28 1063 "},"Ï":{"ha":360,"x_min":0,"x_max":0,"o":"m 114 992 l 246 992 l 246 0 l 114 0 m 249 1213 l 374 1213 l 374 1068 l 249 1068 m -12 1213 l 113 1213 l 113 1068 l -12 1068 "},"Ì":{"ha":360,"x_min":0,"x_max":0,"o":"m 114 992 l 246 992 l 246 0 l 114 0 m -6 1261 l 146 1261 l 265 1063 l 176 1063 "},"Ñ":{"ha":1003,"x_min":0,"x_max":0,"o":"m 107 992 l 247 992 l 769 188 l 772 188 l 772 992 l 897 992 l 897 0 l 753 0 l 235 796 l 232 796 l 232 0 l 107 0 m 743 1233 b 700 1122 738 1194 724 1157 b 590 1079 676 1096 643 1079 b 499 1107 567 1079 532 1093 b 406 1133 465 1119 431 1133 b 339 1075 375 1133 336 1110 l 267 1075 b 413 1228 289 1157 325 1228 b 515 1200 449 1228 483 1214 b 607 1172 547 1186 578 1172 b 671 1233 643 1172 663 1206 "},"Ó":{"ha":1056,"x_min":0,"x_max":0,"o":"m 53 496 b 528 1015 53 765 213 1015 b 1003 496 843 1015 1003 765 b 528 -24 1003 226 843 -24 b 53 496 213 -24 53 226 m 185 496 b 528 88 185 296 286 88 b 871 496 769 88 871 296 b 528 904 871 696 769 904 b 185 496 286 904 185 696 m 563 1261 l 714 1261 l 532 1063 l 443 1063 "},"Ô":{"ha":1056,"x_min":0,"x_max":0,"o":"m 53 496 b 528 1015 53 765 213 1015 b 1003 496 843 1015 1003 765 b 528 -24 1003 226 843 -24 b 53 496 213 -24 53 226 m 185 496 b 528 88 185 296 286 88 b 871 496 769 88 871 296 b 528 904 871 696 769 904 b 185 496 286 904 185 696 m 463 1261 l 592 1261 l 736 1063 l 619 1063 l 524 1196 l 426 1063 l 319 1063 "},"Ö":{"ha":1056,"x_min":0,"x_max":0,"o":"m 53 496 b 528 1015 53 765 213 1015 b 1003 496 843 1015 1003 765 b 528 -24 1003 226 843 -24 b 53 496 213 -24 53 226 m 185 496 b 528 88 185 296 286 88 b 871 496 769 88 871 296 b 528 904 871 696 769 904 b 185 496 286 904 185 696 m 596 1213 l 721 1213 l 721 1068 l 596 1068 m 335 1213 l 460 1213 l 460 1068 l 335 1068 "},"Ò":{"ha":1056,"x_min":0,"x_max":0,"o":"m 53 496 b 528 1015 53 765 213 1015 b 1003 496 843 1015 1003 765 b 528 -24 1003 226 843 -24 b 53 496 213 -24 53 226 m 185 496 b 528 88 185 296 286 88 b 871 496 769 88 871 296 b 528 904 871 696 769 904 b 185 496 286 904 185 696 m 342 1261 l 493 1261 l 613 1063 l 524 1063 "},"Õ":{"ha":1056,"x_min":0,"x_max":0,"o":"m 53 496 b 528 1015 53 765 213 1015 b 1003 496 843 1015 1003 765 b 528 -24 1003 226 843 -24 b 53 496 213 -24 53 226 m 185 496 b 528 88 185 296 286 88 b 871 496 769 88 871 296 b 528 904 871 696 769 904 b 185 496 286 904 185 696 m 769 1233 b 726 1122 764 1194 750 1157 b 617 1079 703 1096 669 1079 b 525 1107 593 1079 558 1093 b 432 1133 492 1119 457 1133 b 365 1075 401 1133 363 1110 l 293 1075 b 439 1228 315 1157 351 1228 b 542 1200 475 1228 510 1214 b 633 1172 574 1186 604 1172 b 697 1233 669 1172 689 1206 "},"Š":{"ha":900,"x_min":0,"x_max":0,"o":"m 682 701 b 436 904 667 843 572 904 b 214 735 325 904 214 864 b 532 558 214 613 372 594 b 849 272 690 522 849 467 b 461 -24 849 61 642 -24 b 51 326 239 -24 51 85 l 176 326 b 465 88 176 160 315 88 b 717 268 585 88 717 125 b 400 463 717 404 558 428 b 82 725 242 497 82 543 b 442 1015 82 926 261 1015 b 807 701 644 1015 799 919 m 515 1063 l 386 1063 l 242 1261 l 358 1261 l 454 1128 l 551 1261 l 658 1261 "},"Ú":{"ha":1003,"x_min":0,"x_max":0,"o":"m 900 358 b 510 -24 900 108 757 -24 b 103 358 254 -24 103 94 l 103 992 l 235 992 l 235 358 b 510 88 235 183 335 88 b 768 358 676 88 768 183 l 768 992 l 900 992 m 536 1261 l 688 1261 l 506 1063 l 417 1063 "},"Û":{"ha":1003,"x_min":0,"x_max":0,"o":"m 900 358 b 510 -24 900 108 757 -24 b 103 358 254 -24 103 94 l 103 992 l 235 992 l 235 358 b 510 88 235 183 335 88 b 768 358 676 88 768 183 l 768 992 l 900 992 m 436 1261 l 565 1261 l 710 1063 l 593 1063 l 497 1196 l 400 1063 l 293 1063 "},"Ü":{"ha":1003,"x_min":0,"x_max":0,"o":"m 900 358 b 510 -24 900 108 757 -24 b 103 358 254 -24 103 94 l 103 992 l 235 992 l 235 358 b 510 88 235 183 335 88 b 768 358 676 88 768 183 l 768 992 l 900 992 m 569 1213 l 694 1213 l 694 1068 l 569 1068 m 308 1213 l 433 1213 l 433 1068 l 308 1068 "},"Ù":{"ha":1003,"x_min":0,"x_max":0,"o":"m 900 358 b 510 -24 900 108 757 -24 b 103 358 254 -24 103 94 l 103 992 l 235 992 l 235 358 b 510 88 235 183 335 88 b 768 358 676 88 768 183 l 768 992 l 900 992 m 315 1261 l 467 1261 l 586 1063 l 497 1063 "},"Ý":{"ha":900,"x_min":0,"x_max":0,"o":"m 518 406 l 518 0 l 386 0 l 386 406 l 3 992 l 160 992 l 457 519 l 747 992 l 897 992 m 485 1261 l 636 1261 l 454 1063 l 365 1063 "},"Ÿ":{"ha":900,"x_min":0,"x_max":0,"o":"m 518 406 l 518 0 l 386 0 l 386 406 l 3 992 l 160 992 l 457 519 l 747 992 l 897 992 m 518 1213 l 643 1213 l 643 1068 l 518 1068 m 257 1213 l 382 1213 l 382 1068 l 257 1068 "},"Ž":{"ha":849,"x_min":0,"x_max":0,"o":"m 31 111 l 647 881 l 78 881 l 78 992 l 803 992 l 803 881 l 188 111 l 819 111 l 819 0 l 31 0 m 490 1063 l 361 1063 l 217 1261 l 333 1261 l 429 1128 l 526 1261 l 633 1261 "},"á":{"ha":746,"x_min":0,"x_max":0,"o":"m 533 371 b 319 322 488 338 399 336 b 175 193 242 308 175 281 b 314 88 175 115 242 88 b 533 250 469 88 533 185 m 725 3 b 640 -17 704 -10 678 -17 b 540 94 579 -17 540 17 b 288 -17 475 18 388 -17 b 50 185 157 -17 50 42 b 293 406 50 347 171 382 b 535 511 424 431 535 422 b 375 631 535 614 450 631 b 196 494 275 631 201 600 l 78 494 b 382 735 85 672 222 735 b 651 538 511 735 651 706 l 651 168 b 689 88 651 113 651 88 b 725 94 699 88 710 89 m 408 1015 l 560 1015 l 378 817 l 289 817 "},"â":{"ha":746,"x_min":0,"x_max":0,"o":"m 533 371 b 319 322 488 338 399 336 b 175 193 242 308 175 281 b 314 88 175 115 242 88 b 533 250 469 88 533 185 m 725 3 b 640 -17 704 -10 678 -17 b 540 94 579 -17 540 17 b 288 -17 475 18 388 -17 b 50 185 157 -17 50 42 b 293 406 50 347 171 382 b 535 511 424 431 535 422 b 375 631 535 614 450 631 b 196 494 275 631 201 600 l 78 494 b 382 735 85 672 222 735 b 651 538 511 735 651 706 l 651 168 b 689 88 651 113 651 88 b 725 94 699 88 710 89 m 308 1015 l 438 1015 l 582 817 l 465 817 l 369 950 l 272 817 l 165 817 "},"ä":{"ha":746,"x_min":0,"x_max":0,"o":"m 533 371 b 319 322 488 338 399 336 b 175 193 242 308 175 281 b 314 88 175 115 242 88 b 533 250 469 88 533 185 m 725 3 b 640 -17 704 -10 678 -17 b 540 94 579 -17 540 17 b 288 -17 475 18 388 -17 b 50 185 157 -17 50 42 b 293 406 50 347 171 382 b 535 511 424 431 535 422 b 375 631 535 614 450 631 b 196 494 275 631 201 600 l 78 494 b 382 735 85 672 222 735 b 651 538 511 735 651 706 l 651 168 b 689 88 651 113 651 88 b 725 94 699 88 710 89 m 442 967 l 567 967 l 567 822 l 442 822 m 181 967 l 306 967 l 306 822 l 181 822 "},"à":{"ha":746,"x_min":0,"x_max":0,"o":"m 533 371 b 319 322 488 338 399 336 b 175 193 242 308 175 281 b 314 88 175 115 242 88 b 533 250 469 88 533 185 m 725 3 b 640 -17 704 -10 678 -17 b 540 94 579 -17 540 17 b 288 -17 475 18 388 -17 b 50 185 157 -17 50 42 b 293 406 50 347 171 382 b 535 511 424 431 535 422 b 375 631 535 614 450 631 b 196 494 275 631 201 600 l 78 494 b 382 735 85 672 222 735 b 651 538 511 735 651 706 l 651 168 b 689 88 651 113 651 88 b 725 94 699 88 710 89 m 188 1015 l 339 1015 l 458 817 l 369 817 "},"å":{"ha":746,"x_min":0,"x_max":0,"o":"m 533 371 b 319 322 488 338 399 336 b 175 193 242 308 175 281 b 314 88 175 115 242 88 b 533 250 469 88 533 185 m 725 3 b 640 -17 704 -10 678 -17 b 540 94 579 -17 540 17 b 288 -17 475 18 388 -17 b 50 185 157 -17 50 42 b 293 406 50 347 171 382 b 535 511 424 431 535 422 b 375 631 535 614 450 631 b 196 494 275 631 201 600 l 78 494 b 382 735 85 672 222 735 b 651 538 511 735 651 706 l 651 168 b 689 88 651 113 651 88 b 725 94 699 88 710 89 m 279 919 b 374 825 279 867 321 825 b 468 919 426 825 468 867 b 374 1014 468 972 426 1014 b 279 919 321 1014 279 972 m 217 919 b 374 1076 217 1006 288 1076 b 531 919 460 1076 531 1006 b 374 763 531 833 460 763 b 217 919 288 763 217 833 "},"ã":{"ha":746,"x_min":0,"x_max":0,"o":"m 533 371 b 319 322 488 338 399 336 b 175 193 242 308 175 281 b 314 88 175 115 242 88 b 533 250 469 88 533 185 m 725 3 b 640 -17 704 -10 678 -17 b 540 94 579 -17 540 17 b 288 -17 475 18 388 -17 b 50 185 157 -17 50 42 b 293 406 50 347 171 382 b 535 511 424 431 535 422 b 375 631 535 614 450 631 b 196 494 275 631 201 600 l 78 494 b 382 735 85 672 222 735 b 651 538 511 735 651 706 l 651 168 b 689 88 651 113 651 88 b 725 94 699 88 710 89 m 615 988 b 572 876 610 949 596 911 b 463 833 549 850 515 833 b 371 861 439 833 404 847 b 278 888 338 874 303 888 b 211 829 247 888 208 864 l 139 829 b 285 982 161 911 197 982 b 388 954 321 982 356 968 b 479 926 419 940 450 926 b 543 988 515 926 535 960 "},"ç":{"ha":746,"x_min":0,"x_max":0,"o":"m 576 488 b 399 631 558 578 496 631 b 175 350 228 631 175 496 b 385 88 175 218 235 88 b 582 263 499 88 567 154 l 703 263 b 407 -15 678 94 575 -8 l 361 -74 l 364 -76 b 410 -67 372 -71 386 -67 b 526 -168 468 -67 526 -100 b 354 -292 526 -261 431 -292 b 226 -265 310 -292 268 -281 l 251 -204 b 336 -222 274 -212 307 -222 b 422 -179 374 -222 422 -211 b 357 -136 422 -154 393 -136 b 300 -147 335 -136 321 -140 l 276 -108 l 350 -14 b 50 350 154 1 50 149 b 389 735 50 565 161 735 b 699 488 551 735 682 658 "},"é":{"ha":746,"x_min":0,"x_max":0,"o":"m 701 228 b 394 -17 669 69 556 -17 b 50 361 165 -17 57 142 b 388 735 50 576 192 735 b 713 324 642 735 719 497 l 175 324 b 399 88 171 199 242 88 b 585 228 496 88 564 135 m 588 428 b 381 631 582 540 497 631 b 175 428 257 631 183 538 m 408 1015 l 560 1015 l 378 817 l 289 817 "},"ê":{"ha":746,"x_min":0,"x_max":0,"o":"m 701 228 b 394 -17 669 69 556 -17 b 50 361 165 -17 57 142 b 388 735 50 576 192 735 b 713 324 642 735 719 497 l 175 324 b 399 88 171 199 242 88 b 585 228 496 88 564 135 m 588 428 b 381 631 582 540 497 631 b 175 428 257 631 183 538 m 308 1015 l 438 1015 l 582 817 l 465 817 l 369 950 l 272 817 l 165 817 "},"ë":{"ha":746,"x_min":0,"x_max":0,"o":"m 701 228 b 394 -17 669 69 556 -17 b 50 361 165 -17 57 142 b 388 735 50 576 192 735 b 713 324 642 735 719 497 l 175 324 b 399 88 171 199 242 88 b 585 228 496 88 564 135 m 588 428 b 381 631 582 540 497 631 b 175 428 257 631 183 538 m 442 967 l 567 967 l 567 822 l 442 822 m 181 967 l 306 967 l 306 822 l 181 822 "},"è":{"ha":746,"x_min":0,"x_max":0,"o":"m 701 228 b 394 -17 669 69 556 -17 b 50 361 165 -17 57 142 b 388 735 50 576 192 735 b 713 324 642 735 719 497 l 175 324 b 399 88 171 199 242 88 b 585 228 496 88 564 135 m 588 428 b 381 631 582 540 497 631 b 175 428 257 631 183 538 m 188 1015 l 339 1015 l 458 817 l 369 817 "},"í":{"ha":308,"x_min":0,"x_max":0,"o":"m 96 0 l 96 718 l 214 718 l 214 0 m 189 1015 l 340 1015 l 158 817 l 69 817 "},"î":{"ha":308,"x_min":0,"x_max":0,"o":"m 96 0 l 96 718 l 214 718 l 214 0 m 89 1015 l 218 1015 l 363 817 l 246 817 l 150 950 l 53 817 l -54 817 "},"ï":{"ha":308,"x_min":0,"x_max":0,"o":"m 96 0 l 96 718 l 214 718 l 214 0 m 222 967 l 347 967 l 347 822 l 222 822 m -39 967 l 86 967 l 86 822 l -39 822 "},"ì":{"ha":308,"x_min":0,"x_max":0,"o":"m 96 0 l 96 718 l 214 718 l 214 0 m -32 1015 l 119 1015 l 239 817 l 150 817 "},"ñ":{"ha":772,"x_min":0,"x_max":0,"o":"m 89 718 l 200 718 l 200 604 l 203 604 b 436 735 253 693 333 735 b 683 472 625 735 683 626 l 683 0 l 565 0 l 565 486 b 419 631 565 574 510 631 b 207 406 276 631 207 535 l 207 0 l 89 0 m 628 988 b 585 876 622 949 608 911 b 475 833 561 850 528 833 b 383 861 451 833 417 847 b 290 888 350 874 315 888 b 224 829 260 888 221 864 l 151 829 b 297 982 174 911 210 982 b 400 954 333 982 368 968 b 492 926 432 940 463 926 b 556 988 528 926 547 960 "},"ó":{"ha":797,"x_min":0,"x_max":0,"o":"m 50 358 b 399 735 50 569 171 735 b 747 358 626 735 747 569 b 399 -17 747 149 626 -17 b 50 358 171 -17 50 149 m 175 358 b 399 88 175 185 275 88 b 622 358 522 88 622 185 b 399 631 622 533 522 631 b 175 358 275 631 175 533 m 433 1015 l 585 1015 l 403 817 l 314 817 "},"ô":{"ha":797,"x_min":0,"x_max":0,"o":"m 50 358 b 399 735 50 569 171 735 b 747 358 626 735 747 569 b 399 -17 747 149 626 -17 b 50 358 171 -17 50 149 m 175 358 b 399 88 175 185 275 88 b 622 358 522 88 622 185 b 399 631 622 533 522 631 b 175 358 275 631 175 533 m 333 1015 l 463 1015 l 607 817 l 490 817 l 394 950 l 297 817 l 190 817 "},"ö":{"ha":797,"x_min":0,"x_max":0,"o":"m 50 358 b 399 735 50 569 171 735 b 747 358 626 735 747 569 b 399 -17 747 149 626 -17 b 50 358 171 -17 50 149 m 175 358 b 399 88 175 185 275 88 b 622 358 522 88 622 185 b 399 631 622 533 522 631 b 175 358 275 631 175 533 m 467 967 l 592 967 l 592 822 l 467 822 m 206 967 l 331 967 l 331 822 l 206 822 "},"ò":{"ha":797,"x_min":0,"x_max":0,"o":"m 50 358 b 399 735 50 569 171 735 b 747 358 626 735 747 569 b 399 -17 747 149 626 -17 b 50 358 171 -17 50 149 m 175 358 b 399 88 175 185 275 88 b 622 358 522 88 622 185 b 399 631 622 533 522 631 b 175 358 275 631 175 533 m 213 1015 l 364 1015 l 483 817 l 394 817 "},"õ":{"ha":797,"x_min":0,"x_max":0,"o":"m 50 358 b 399 735 50 569 171 735 b 747 358 626 735 747 569 b 399 -17 747 149 626 -17 b 50 358 171 -17 50 149 m 175 358 b 399 88 175 185 275 88 b 622 358 522 88 622 185 b 399 631 622 533 522 631 b 175 358 275 631 175 533 m 640 988 b 597 876 635 949 621 911 b 488 833 574 850 540 833 b 396 861 464 833 429 847 b 303 888 363 874 328 888 b 236 829 272 888 233 864 l 164 829 b 310 982 186 911 222 982 b 413 954 346 982 381 968 b 504 926 444 940 475 926 b 568 988 540 926 560 960 "},"š":{"ha":694,"x_min":0,"x_max":0,"o":"m 161 226 b 354 88 165 121 257 88 b 528 194 428 88 528 104 b 293 328 528 286 411 301 b 58 531 176 354 58 393 b 326 735 58 675 201 735 b 621 510 485 735 611 685 l 503 510 b 336 631 494 601 414 631 b 183 539 265 631 183 611 b 418 414 183 454 308 440 b 653 210 536 388 653 349 b 347 -17 653 39 493 -17 b 43 226 186 -17 50 49 m 413 817 l 283 817 l 139 1015 l 256 1015 l 351 882 l 449 1015 l 556 1015 "},"ú":{"ha":772,"x_min":0,"x_max":0,"o":"m 683 0 l 572 0 l 572 114 l 569 114 b 336 -17 519 25 439 -17 b 89 246 147 -17 89 92 l 89 718 l 207 718 l 207 232 b 353 88 207 144 263 88 b 565 313 496 88 565 183 l 565 718 l 683 718 m 421 1015 l 572 1015 l 390 817 l 301 817 "},"û":{"ha":772,"x_min":0,"x_max":0,"o":"m 683 0 l 572 0 l 572 114 l 569 114 b 336 -17 519 25 439 -17 b 89 246 147 -17 89 92 l 89 718 l 207 718 l 207 232 b 353 88 207 144 263 88 b 565 313 496 88 565 183 l 565 718 l 683 718 m 321 1015 l 450 1015 l 594 817 l 478 817 l 382 950 l 285 817 l 178 817 "},"ü":{"ha":772,"x_min":0,"x_max":0,"o":"m 683 0 l 572 0 l 572 114 l 569 114 b 336 -17 519 25 439 -17 b 89 246 147 -17 89 92 l 89 718 l 207 718 l 207 232 b 353 88 207 144 263 88 b 565 313 496 88 565 183 l 565 718 l 683 718 m 454 967 l 579 967 l 579 822 l 454 822 m 193 967 l 318 967 l 318 822 l 193 822 "},"ù":{"ha":772,"x_min":0,"x_max":0,"o":"m 683 0 l 572 0 l 572 114 l 569 114 b 336 -17 519 25 439 -17 b 89 246 147 -17 89 92 l 89 718 l 207 718 l 207 232 b 353 88 207 144 263 88 b 565 313 496 88 565 183 l 565 718 l 683 718 m 200 1015 l 351 1015 l 471 817 l 382 817 "},"ý":{"ha":694,"x_min":0,"x_max":0,"o":"m 371 -96 b 163 -287 317 -236 268 -287 b 81 -275 135 -287 107 -285 l 81 -167 b 150 -183 103 -174 126 -183 b 247 -118 199 -183 225 -160 l 296 4 l 11 718 l 144 718 l 354 131 l 357 131 l 558 718 l 683 718 m 382 1015 l 533 1015 l 351 817 l 263 817 "},"ÿ":{"ha":694,"x_min":0,"x_max":0,"o":"m 371 -96 b 163 -287 317 -236 268 -287 b 81 -275 135 -287 107 -285 l 81 -167 b 150 -183 103 -174 126 -183 b 247 -118 199 -183 225 -160 l 296 4 l 11 718 l 144 718 l 354 131 l 357 131 l 558 718 l 683 718 m 415 967 l 540 967 l 540 822 l 415 822 m 154 967 l 279 967 l 279 822 l 154 822 "},"ž":{"ha":667,"x_min":0,"x_max":0,"o":"m 31 90 l 464 614 l 58 614 l 58 718 l 617 718 l 617 638 l 178 104 l 636 104 l 636 0 l 31 0 m 399 817 l 269 817 l 125 1015 l 242 1015 l 338 882 l 435 1015 l 542 1015 "},"€":{"ha":772,"x_min":0,"x_max":0,"o":"m 713 801 b 503 875 672 840 603 875 b 256 631 351 875 274 771 l 656 631 l 622 538 l 243 538 b 242 489 242 524 242 506 b 243 438 242 469 243 450 l 588 438 l 554 343 l 256 343 b 504 93 278 183 363 93 b 713 167 603 93 668 126 l 713 44 b 489 -15 679 17 601 -15 b 138 343 297 -15 171 99 l 35 343 l 67 438 l 128 438 b 126 489 126 449 126 471 b 128 538 126 506 126 524 l 35 538 l 67 631 l 136 631 b 489 985 167 835 271 985 b 713 922 594 985 675 953 "}}}
